<svg width="20" height="20" viewBox="0 0 20 20" fill="none" xmlns="http://www.w3.org/2000/svg">
<path d="M18.0499 14.8716C17.7833 15.011 17.5083 15.1337 17.2265 15.2393C16.3297 15.5745 15.3796 15.7453 14.422 15.7435C10.7254 15.7435 7.50528 13.2029 7.50528 9.94281C7.51002 9.50555 7.63147 9.07747 7.8571 8.70277C8.08273 8.32807 8.40436 8.02031 8.7888 7.81128C5.44526 7.95177 4.58594 11.4328 4.58594 13.4722C4.58594 19.2385 9.90513 19.8231 11.0512 19.8231C11.6691 19.8231 12.6011 19.6436 13.1604 19.4672L13.2627 19.4329C15.4151 18.6894 17.2501 17.236 18.4655 15.3118C18.5028 15.2532 18.5194 15.1839 18.5128 15.1148C18.5062 15.0457 18.4767 14.9808 18.429 14.9303C18.3814 14.8798 18.3182 14.8467 18.2495 14.836C18.1809 14.8254 18.1107 14.8379 18.0499 14.8716V14.8716Z" fill="url(#paint0_linear_2580_38301)"/>
<path opacity="0.35" d="M18.0499 14.8716C17.7833 15.011 17.5083 15.1337 17.2265 15.2393C16.3297 15.5745 15.3796 15.7453 14.422 15.7435C10.7254 15.7435 7.50528 13.2029 7.50528 9.94281C7.51002 9.50555 7.63147 9.07747 7.8571 8.70277C8.08273 8.32807 8.40436 8.02031 8.7888 7.81128C5.44526 7.95177 4.58594 11.4328 4.58594 13.4722C4.58594 19.2385 9.90513 19.8231 11.0512 19.8231C11.6691 19.8231 12.6011 19.6436 13.1604 19.4672L13.2627 19.4329C15.4151 18.6894 17.2501 17.236 18.4655 15.3118C18.5028 15.2532 18.5194 15.1839 18.5128 15.1148C18.5062 15.0457 18.4767 14.9808 18.429 14.9303C18.3814 14.8798 18.3182 14.8467 18.2495 14.836C18.1809 14.8254 18.1107 14.8379 18.0499 14.8716V14.8716Z" fill="url(#paint1_radial_2580_38301)"/>
<path d="M8.25927 18.8428C7.56248 18.4107 6.95863 17.8445 6.48281 17.1772C5.9405 16.4348 5.5673 15.5829 5.38941 14.6812C5.21152 13.7795 5.23325 12.8499 5.45306 11.9574C5.67287 11.065 6.08544 10.2314 6.66184 9.51518C7.23824 8.79893 7.96451 8.21735 8.7897 7.81122C9.03344 7.69649 9.44982 7.48888 10.0037 7.49902C10.3939 7.50186 10.7782 7.59495 11.1264 7.77098C11.4745 7.94702 11.7772 8.20122 12.0106 8.51367C12.3261 8.9345 12.5 9.44435 12.5074 9.97007C12.5074 9.95368 14.4183 3.75732 6.25783 3.75732C2.82836 3.75732 0.0082203 7.00887 0.0082203 9.86158C-0.00530704 11.3706 0.317868 12.8637 0.954255 14.2324C1.99429 16.4494 3.81303 18.2077 6.0651 19.1733C8.31717 20.1389 10.8458 20.2446 13.1707 19.4703C12.3566 19.7267 11.4966 19.8037 10.6499 19.6959C9.80319 19.5881 8.98996 19.2981 8.2663 18.8459L8.25927 18.8428Z" fill="url(#paint2_linear_2580_38301)"/>
<path opacity="0.41" d="M8.25927 18.8428C7.56248 18.4107 6.95863 17.8445 6.48281 17.1772C5.9405 16.4348 5.5673 15.5829 5.38941 14.6812C5.21152 13.7795 5.23325 12.8499 5.45306 11.9574C5.67287 11.065 6.08544 10.2314 6.66184 9.51518C7.23824 8.79893 7.96451 8.21735 8.7897 7.81122C9.03344 7.69649 9.44982 7.48888 10.0037 7.49902C10.3939 7.50186 10.7782 7.59495 11.1264 7.77098C11.4745 7.94702 11.7772 8.20122 12.0106 8.51367C12.3261 8.9345 12.5 9.44435 12.5074 9.97007C12.5074 9.95368 14.4183 3.75732 6.25783 3.75732C2.82836 3.75732 0.0082203 7.00887 0.0082203 9.86158C-0.00530704 11.3706 0.317868 12.8637 0.954255 14.2324C1.99429 16.4494 3.81303 18.2077 6.0651 19.1733C8.31717 20.1389 10.8458 20.2446 13.1707 19.4703C12.3566 19.7267 11.4966 19.8037 10.6499 19.6959C9.80319 19.5881 8.98996 19.2981 8.2663 18.8459L8.25927 18.8428Z" fill="url(#paint3_radial_2580_38301)"/>
<path d="M11.9 11.6185C11.8368 11.7004 11.6422 11.8136 11.6422 12.0602C11.6422 12.2639 11.775 12.4598 12.011 12.6245C13.1343 13.405 15.2522 13.302 15.2576 13.302C16.09 13.3 16.9066 13.0749 17.6223 12.6503C18.3443 12.2291 18.9435 11.6266 19.3605 10.9026C19.7775 10.1787 19.9978 9.35832 19.9995 8.52302C20.0198 6.77393 19.3746 5.61099 19.1136 5.09586C17.4583 1.8607 13.8851 4.89092e-08 9.99937 4.89092e-08C7.37156 -0.00025956 4.84926 1.03299 2.978 2.87626C1.10675 4.71954 0.0369536 7.22468 0 9.84986C0.0374977 6.99793 2.87482 4.69468 6.24961 4.69468C6.52303 4.69468 8.08231 4.72122 9.53065 5.48064C10.8071 6.15031 11.4758 6.9589 11.9407 7.76047C12.4234 8.59326 12.5094 9.64537 12.5094 10.0645C12.5094 10.4836 12.2953 11.1049 11.9 11.6185V11.6185Z" fill="url(#paint4_radial_2580_38301)"/>
<path d="M11.9 11.6185C11.8368 11.7004 11.6422 11.8136 11.6422 12.0602C11.6422 12.2639 11.775 12.4598 12.011 12.6245C13.1343 13.405 15.2522 13.302 15.2576 13.302C16.09 13.3 16.9066 13.0749 17.6223 12.6503C18.3443 12.2291 18.9435 11.6266 19.3605 10.9026C19.7775 10.1787 19.9978 9.35832 19.9995 8.52302C20.0198 6.77393 19.3746 5.61099 19.1136 5.09586C17.4583 1.8607 13.8851 4.89092e-08 9.99937 4.89092e-08C7.37156 -0.00025956 4.84926 1.03299 2.978 2.87626C1.10675 4.71954 0.0369536 7.22468 0 9.84986C0.0374977 6.99793 2.87482 4.69468 6.24961 4.69468C6.52303 4.69468 8.08231 4.72122 9.53065 5.48064C10.8071 6.15031 11.4758 6.9589 11.9407 7.76047C12.4234 8.59326 12.5094 9.64537 12.5094 10.0645C12.5094 10.4836 12.2953 11.1049 11.9 11.6185V11.6185Z" fill="url(#paint5_radial_2580_38301)"/>
<defs>
<linearGradient id="paint0_linear_2580_38301" x1="4.58594" y1="13.8188" x2="18.5179" y2="13.8188" gradientUnits="userSpaceOnUse">
<stop stop-color="#0C59A4"/>
<stop offset="1" stop-color="#114A8B"/>
</linearGradient>
<radialGradient id="paint1_radial_2580_38301" cx="0" cy="0" r="1" gradientUnits="userSpaceOnUse" gradientTransform="translate(12.2808 13.9285) scale(7.45109 7.07215)">
<stop offset="0.72" stop-opacity="0"/>
<stop offset="0.95" stop-opacity="0.53"/>
<stop offset="1"/>
</radialGradient>
<linearGradient id="paint2_linear_2580_38301" x1="11.9317" y1="7.78078" x2="3.23842" y2="17.2584" gradientUnits="userSpaceOnUse">
<stop stop-color="#1B9DE2"/>
<stop offset="0.16" stop-color="#1595DF"/>
<stop offset="0.67" stop-color="#0680D7"/>
<stop offset="1" stop-color="#0078D4"/>
</linearGradient>
<radialGradient id="paint3_radial_2580_38301" cx="0" cy="0" r="1" gradientTransform="matrix(1.67849 -11.068 -8.95194 -1.34158 5.51448 15.5325)" gradientUnits="userSpaceOnUse">
<stop offset="0.76" stop-opacity="0"/>
<stop offset="0.95" stop-opacity="0.5"/>
<stop offset="1"/>
</radialGradient>
<radialGradient id="paint4_radial_2580_38301" cx="0" cy="0" r="1" gradientTransform="matrix(-0.632554 15.7996 33.6835 1.26397 2.02038 3.69774)" gradientUnits="userSpaceOnUse">
<stop stop-color="#35C1F1"/>
<stop offset="0.11" stop-color="#34C1ED"/>
<stop offset="0.23" stop-color="#2FC2DF"/>
<stop offset="0.31" stop-color="#2BC3D2"/>
<stop offset="0.67" stop-color="#36C752"/>
</radialGradient>
<radialGradient id="paint5_radial_2580_38301" cx="0" cy="0" r="1" gradientTransform="matrix(2.12918 7.29345 5.93129 -1.74739 18.7545 6.04152)" gradientUnits="userSpaceOnUse">
<stop stop-color="#66EB6E"/>
<stop offset="1" stop-color="#66EB6E" stop-opacity="0"/>
</radialGradient>
</defs>
</svg>
