<svg width="20" height="20" viewBox="0 0 20 20" fill="none" xmlns="http://www.w3.org/2000/svg">
<path d="M18.6617 6.70949C18.2405 5.69607 17.3862 4.60187 16.7171 4.25598C17.1943 5.18014 17.5255 6.17265 17.6988 7.19819L17.7005 7.21445C16.6046 4.48207 14.7461 3.38037 13.2282 0.981382C13.1514 0.860082 13.0746 0.738532 12.9998 0.61023C12.9571 0.53695 12.9228 0.470922 12.8931 0.410147C12.8301 0.288236 12.7816 0.159395 12.7485 0.0262394C12.7485 0.0200949 12.7463 0.0141491 12.7423 0.00953628C12.7382 0.00492341 12.7326 0.00196633 12.7265 0.00122913C12.7205 -0.00040971 12.7142 -0.00040971 12.7082 0.00122913C12.707 0.00122913 12.705 0.00348006 12.7035 0.00398026C12.702 0.00448047 12.6987 0.00673139 12.6965 0.00773181L12.7002 0.00122913C10.2655 1.42682 9.43938 4.0659 9.36335 5.38594C8.39103 5.45278 7.46141 5.81108 6.69575 6.41412C6.61587 6.34645 6.53238 6.28317 6.44565 6.22454C6.22478 5.45146 6.21537 4.63328 6.41839 3.85531C5.52426 4.28847 4.72976 4.90251 4.08518 5.65856H4.08068C3.69652 5.17161 3.72353 3.56595 3.74554 3.23056C3.63189 3.27623 3.52341 3.33383 3.42191 3.40238C3.08278 3.64442 2.76574 3.91601 2.47452 4.21396C2.14266 4.55043 1.83956 4.9141 1.56839 5.30116V5.30266V5.30091C0.945199 6.18441 0.503181 7.18261 0.26786 8.23787L0.254855 8.30189C0.236597 8.38718 0.17082 8.81436 0.159566 8.90714C0.159566 8.9144 0.158065 8.92115 0.157315 8.9284C0.0724642 9.36942 0.0198866 9.81604 0 10.2647L0 10.3147C0.00212515 12.7418 0.914633 15.0798 2.55718 16.8666C4.19973 18.6534 6.4528 19.759 8.87112 19.965C11.2894 20.171 13.697 19.4623 15.6181 17.979C17.5391 16.4956 18.8339 14.3457 19.2464 11.9539C19.2627 11.8288 19.2759 11.705 19.2904 11.5787C19.4901 9.92862 19.2739 8.25477 18.6617 6.70949V6.70949ZM7.48958 14.2971C7.53485 14.3189 7.57737 14.3424 7.62389 14.3631L7.63064 14.3674C7.58362 14.3449 7.5366 14.3215 7.48958 14.2971V14.2971ZM17.7013 7.2167V7.20744L17.703 7.2177L17.7013 7.2167Z" fill="url(#paint0_linear_2580_38287)"/>
<path d="M18.6617 6.70937C18.2405 5.69595 17.3862 4.60175 16.7171 4.25586C17.1943 5.18002 17.5255 6.17253 17.6988 7.19807V7.20732L17.7005 7.21758C18.4477 9.35557 18.3396 11.6996 17.3989 13.7598C16.2879 16.1435 13.5988 18.5868 9.38961 18.468C4.84149 18.3392 0.836094 14.9643 0.0872859 10.5439C-0.0490202 9.84691 0.0872859 9.49351 0.155814 8.92703C0.0623325 9.36706 0.0101678 9.81485 0 10.2646L0 10.3146C0.00212515 12.7417 0.914633 15.0796 2.55718 16.8665C4.19973 18.6533 6.4528 19.7589 8.87112 19.9649C11.2894 20.1708 13.697 19.4621 15.6181 17.9788C17.5391 16.4955 18.8339 14.3455 19.2464 11.9538C19.2627 11.8287 19.2759 11.7049 19.2904 11.5786C19.4901 9.9285 19.2739 8.25465 18.6617 6.70937V6.70937Z" fill="url(#paint1_radial_2580_38287)"/>
<path d="M18.6617 6.70937C18.2405 5.69595 17.3862 4.60175 16.7171 4.25586C17.1943 5.18002 17.5255 6.17253 17.6988 7.19807V7.20732L17.7005 7.21758C18.4477 9.35557 18.3396 11.6996 17.3989 13.7598C16.2879 16.1435 13.5988 18.5868 9.38961 18.468C4.84149 18.3392 0.836094 14.9643 0.0872859 10.5439C-0.0490202 9.84691 0.0872859 9.49351 0.155814 8.92703C0.0623325 9.36706 0.0101678 9.81485 0 10.2646L0 10.3146C0.00212515 12.7417 0.914633 15.0796 2.55718 16.8665C4.19973 18.6533 6.4528 19.7589 8.87112 19.9649C11.2894 20.1708 13.697 19.4621 15.6181 17.9788C17.5391 16.4955 18.8339 14.3455 19.2464 11.9538C19.2627 11.8287 19.2759 11.7049 19.2904 11.5786C19.4901 9.9285 19.2739 8.25465 18.6617 6.70937V6.70937Z" fill="url(#paint2_radial_2580_38287)"/>
<path d="M13.9512 7.84895C13.9722 7.8637 13.9917 7.87846 14.0114 7.89322C13.768 7.46146 13.4649 7.06617 13.1111 6.71898C10.0983 3.70574 12.3215 0.185546 12.6964 0.00672297L12.7002 0.0012207C10.2654 1.42681 9.43931 4.06589 9.36328 5.38594C9.47633 5.37818 9.58837 5.36868 9.70392 5.36868C10.5678 5.37026 11.4159 5.60059 12.1619 6.03624C12.9079 6.47189 13.5253 7.09732 13.9512 7.84895V7.84895Z" fill="url(#paint3_radial_2580_38287)"/>
<path d="M9.70939 8.45067C9.69338 8.69177 8.84153 9.52336 8.54366 9.52336C5.78728 9.52336 5.33984 11.1908 5.33984 11.1908C5.46189 12.5949 6.4403 13.7514 7.62303 14.3631C7.67706 14.3911 7.73183 14.4164 7.7866 14.4411C7.88147 14.4832 7.97635 14.522 8.07122 14.5577C8.47713 14.7013 8.90227 14.7834 9.33249 14.801C14.1637 15.0276 15.0996 9.02366 11.6132 7.28144C12.4357 7.17442 13.2686 7.37666 13.9504 7.84892C13.5245 7.0973 12.9071 6.47186 12.1611 6.03621C11.4151 5.60056 10.567 5.37024 9.70314 5.36865C9.58809 5.36865 9.47554 5.37816 9.3625 5.38591C8.39017 5.45275 7.46056 5.81105 6.6949 6.41408C6.84271 6.53913 7.00953 6.7062 7.36092 7.05259C8.0187 7.70061 9.70564 8.37189 9.70939 8.45067V8.45067Z" fill="url(#paint4_radial_2580_38287)"/>
<path d="M9.70939 8.45067C9.69338 8.69177 8.84153 9.52336 8.54366 9.52336C5.78728 9.52336 5.33984 11.1908 5.33984 11.1908C5.46189 12.5949 6.4403 13.7514 7.62303 14.3631C7.67706 14.3911 7.73183 14.4164 7.7866 14.4411C7.88147 14.4832 7.97635 14.522 8.07122 14.5577C8.47713 14.7013 8.90227 14.7834 9.33249 14.801C14.1637 15.0276 15.0996 9.02366 11.6132 7.28144C12.4357 7.17442 13.2686 7.37666 13.9504 7.84892C13.5245 7.0973 12.9071 6.47186 12.1611 6.03621C11.4151 5.60056 10.567 5.37024 9.70314 5.36865C9.58809 5.36865 9.47554 5.37816 9.3625 5.38591C8.39017 5.45275 7.46056 5.81105 6.6949 6.41408C6.84271 6.53913 7.00953 6.7062 7.36092 7.05259C8.0187 7.70061 9.70564 8.37189 9.70939 8.45067V8.45067Z" fill="url(#paint5_radial_2580_38287)"/>
<path d="M6.24242 6.09164C6.32095 6.14166 6.38573 6.18518 6.4425 6.22445C6.22163 5.45137 6.21222 4.63318 6.41524 3.85522C5.52111 4.28838 4.72661 4.90241 4.08203 5.65847C4.1293 5.65722 5.53538 5.63196 6.24242 6.09164V6.09164Z" fill="url(#paint6_radial_2580_38287)"/>
<path d="M0.0899925 10.5442C0.83805 14.9645 4.8442 18.3394 9.39232 18.4682C13.6016 18.5872 16.2907 16.1437 17.4016 13.76C18.3423 11.6998 18.4504 9.35579 17.7032 7.21779V7.20854C17.7032 7.20129 17.7017 7.19703 17.7032 7.19929L17.705 7.21554C18.0489 9.46072 16.9069 11.6359 15.1217 13.1067L15.1162 13.1192C11.6377 15.9521 8.30887 14.8284 7.6351 14.3697C7.58808 14.3472 7.54106 14.3238 7.49404 14.2995C5.46595 13.3301 4.62811 11.4823 4.80768 9.89765C4.32626 9.90475 3.85311 9.77209 3.44556 9.51573C3.03801 9.25937 2.71355 8.89033 2.51149 8.4533C3.04386 8.12715 3.65089 7.94277 4.27472 7.91773C4.89855 7.89269 5.5184 8.02782 6.0752 8.31024C7.22314 8.83137 8.5294 8.88272 9.7147 8.4533C9.71095 8.37452 8.02401 7.70299 7.36624 7.05523C7.01484 6.70883 6.84802 6.54202 6.70021 6.41671C6.62033 6.34905 6.53684 6.28576 6.45011 6.22714C6.39258 6.18787 6.32781 6.14535 6.25003 6.09433C5.54299 5.63464 4.13691 5.6599 4.09039 5.66115H4.08589C3.70173 5.1742 3.72874 3.56854 3.75075 3.23315C3.6371 3.27883 3.52862 3.33642 3.42712 3.40498C3.08799 3.64701 2.77095 3.9186 2.47973 4.21656C2.14668 4.55208 1.84232 4.91492 1.56985 5.30125V5.30276V5.301C0.946655 6.18451 0.504638 7.1827 0.269316 8.23796C0.264564 8.25772 -0.0798274 9.76334 0.0899925 10.5442V10.5442Z" fill="url(#paint7_radial_2580_38287)"/>
<path d="M13.1111 6.71899C13.4649 7.06656 13.7681 7.46228 14.0114 7.89448C14.0647 7.93474 14.1145 7.97476 14.1568 8.01353C16.3544 10.0394 15.2029 12.903 15.1171 13.1069C16.9024 11.636 18.0434 9.46087 17.7005 7.2157C16.604 4.48207 14.7455 3.38037 13.2276 0.981382C13.1508 0.860082 13.0741 0.738532 12.9993 0.61023C12.9565 0.536949 12.9222 0.470922 12.8925 0.410147C12.8295 0.288236 12.781 0.159395 12.7479 0.0262394C12.748 0.0200949 12.7458 0.0141491 12.7417 0.00953628C12.7376 0.00492341 12.732 0.00196633 12.7259 0.00122913C12.7199 -0.00040971 12.7136 -0.00040971 12.7077 0.00122913C12.7064 0.00122913 12.7044 0.00348006 12.7029 0.00398026C12.7014 0.00448047 12.6982 0.00673139 12.6959 0.00773181C12.321 0.185555 10.0978 3.70575 13.1111 6.71899V6.71899Z" fill="url(#paint8_radial_2580_38287)"/>
<path d="M14.154 8.0122C14.1118 7.97343 14.062 7.93342 14.0087 7.89315C13.989 7.8784 13.9695 7.86364 13.9484 7.84888C13.2666 7.37662 12.4337 7.17438 11.6112 7.2814C15.0977 9.02462 14.1623 15.0276 9.33055 14.801C8.90033 14.7833 8.47519 14.7013 8.06928 14.5576C7.97441 14.5221 7.87953 14.4833 7.78466 14.4411C7.72989 14.4161 7.67512 14.3911 7.62109 14.3631L7.62785 14.3673C8.30162 14.8273 11.6295 15.951 15.1089 13.1168L15.1144 13.1043C15.2012 12.9017 16.3527 10.0373 14.154 8.0122V8.0122Z" fill="url(#paint9_radial_2580_38287)"/>
<path d="M5.34148 11.1908C5.34148 11.1908 5.78891 9.52332 8.5453 9.52332C8.84317 9.52332 9.69577 8.69172 9.71103 8.45062C8.52573 8.88004 7.21946 8.82869 6.07153 8.30757C5.51473 8.02514 4.89487 7.89001 4.27104 7.91505C3.64721 7.94009 3.04018 8.12448 2.50781 8.45062C2.70987 8.88765 3.03433 9.2567 3.44188 9.51305C3.84943 9.76941 4.32259 9.90207 4.80401 9.89497C4.62443 11.4799 5.46228 13.3276 7.49036 14.2968C7.53563 14.3185 7.57815 14.342 7.62467 14.3628C6.44093 13.7513 5.46353 12.5948 5.34148 11.1908Z" fill="url(#paint10_radial_2580_38287)"/>
<path d="M18.6617 6.70949C18.2405 5.69607 17.3862 4.60187 16.7171 4.25598C17.1943 5.18014 17.5255 6.17265 17.6988 7.19819L17.7005 7.21445C16.6046 4.48207 14.7461 3.38037 13.2282 0.981382C13.1514 0.860082 13.0746 0.738532 12.9998 0.61023C12.9571 0.53695 12.9228 0.470922 12.8931 0.410147C12.8301 0.288236 12.7816 0.159395 12.7485 0.0262394C12.7485 0.0200949 12.7463 0.0141491 12.7423 0.00953628C12.7382 0.00492341 12.7326 0.00196633 12.7265 0.00122913C12.7205 -0.00040971 12.7142 -0.00040971 12.7082 0.00122913C12.707 0.00122913 12.705 0.00348006 12.7035 0.00398026C12.702 0.00448047 12.6987 0.00673139 12.6965 0.00773181L12.7002 0.00122913C10.2655 1.42682 9.43938 4.0659 9.36335 5.38594C9.4764 5.37819 9.58844 5.36869 9.70399 5.36869C10.5679 5.37027 11.416 5.6006 12.162 6.03625C12.908 6.4719 13.5253 7.09733 13.9512 7.84896C13.2694 7.37669 12.4365 7.17446 11.614 7.28147C15.1005 9.02469 14.1651 15.0277 9.33334 14.8011C8.90312 14.7834 8.47798 14.7014 8.07207 14.5577C7.9772 14.5222 7.88232 14.4834 7.78745 14.4412C7.73268 14.4162 7.67791 14.3912 7.62389 14.3631L7.63064 14.3674C7.58362 14.3449 7.5366 14.3215 7.48958 14.2971C7.53485 14.3189 7.57737 14.3424 7.62389 14.3631C6.44015 13.7514 5.46275 12.5949 5.3407 11.1908C5.3407 11.1908 5.78813 9.5234 8.54451 9.5234C8.84239 9.5234 9.69499 8.69181 9.71024 8.45071C9.70649 8.37192 8.01955 7.7004 7.36178 7.05263C7.01038 6.70624 6.84356 6.53942 6.69575 6.41412C6.61587 6.34645 6.53238 6.28317 6.44565 6.22454C6.22478 5.45146 6.21537 4.63328 6.41839 3.85531C5.52426 4.28847 4.72976 4.90251 4.08518 5.65856H4.08068C3.69652 5.17161 3.72353 3.56595 3.74554 3.23056C3.63189 3.27623 3.52341 3.33383 3.42191 3.40238C3.08278 3.64442 2.76574 3.91601 2.47452 4.21396C2.14266 4.55043 1.83956 4.9141 1.56839 5.30116V5.30266V5.30091C0.945199 6.18441 0.503181 7.18261 0.26786 8.23787L0.254855 8.30189C0.236597 8.38718 0.154814 8.82036 0.143059 8.9134C0.143059 8.9204 0.143059 8.90614 0.143059 8.9134C0.0682557 9.36055 0.0204827 9.8118 0 10.2647L0 10.3147C0.00212515 12.7418 0.914633 15.0798 2.55718 16.8666C4.19973 18.6534 6.4528 19.759 8.87112 19.965C11.2894 20.171 13.697 19.4623 15.6181 17.979C17.5391 16.4956 18.8339 14.3457 19.2464 11.9539C19.2627 11.8288 19.2759 11.705 19.2904 11.5787C19.4901 9.92862 19.2739 8.25477 18.6617 6.70949V6.70949ZM17.7 7.20744L17.7018 7.2177L17.7 7.20744Z" fill="url(#paint11_linear_2580_38287)"/>
<defs>
<linearGradient id="paint0_linear_2580_38287" x1="17.3786" y1="3.0985" x2="1.28728" y2="18.6236" gradientUnits="userSpaceOnUse">
<stop offset="0.048" stop-color="#FFF44F"/>
<stop offset="0.111" stop-color="#FFE847"/>
<stop offset="0.225" stop-color="#FFC830"/>
<stop offset="0.368" stop-color="#FF980E"/>
<stop offset="0.401" stop-color="#FF8B16"/>
<stop offset="0.462" stop-color="#FF672A"/>
<stop offset="0.534" stop-color="#FF3647"/>
<stop offset="0.705" stop-color="#E31587"/>
</linearGradient>
<radialGradient id="paint1_radial_2580_38287" cx="0" cy="0" r="1" gradientUnits="userSpaceOnUse" gradientTransform="translate(16.6351 2.21947) scale(20.2076 20.2076)">
<stop offset="0.129" stop-color="#FFBD4F"/>
<stop offset="0.186" stop-color="#FFAC31"/>
<stop offset="0.247" stop-color="#FF9D17"/>
<stop offset="0.283" stop-color="#FF980E"/>
<stop offset="0.403" stop-color="#FF563B"/>
<stop offset="0.467" stop-color="#FF3750"/>
<stop offset="0.71" stop-color="#F5156C"/>
<stop offset="0.782" stop-color="#EB0878"/>
<stop offset="0.86" stop-color="#E50080"/>
</radialGradient>
<radialGradient id="paint2_radial_2580_38287" cx="0" cy="0" r="1" gradientUnits="userSpaceOnUse" gradientTransform="translate(9.25108 10.4809) scale(20.2076 20.2076)">
<stop offset="0.3" stop-color="#960E18"/>
<stop offset="0.351" stop-color="#B11927" stop-opacity="0.74"/>
<stop offset="0.435" stop-color="#DB293D" stop-opacity="0.343"/>
<stop offset="0.497" stop-color="#F5334B" stop-opacity="0.094"/>
<stop offset="0.53" stop-color="#FF3750" stop-opacity="0"/>
</radialGradient>
<radialGradient id="paint3_radial_2580_38287" cx="0" cy="0" r="1" gradientUnits="userSpaceOnUse" gradientTransform="translate(11.6872 -2.36628) scale(14.6395 14.6395)">
<stop offset="0.132" stop-color="#FFF44F"/>
<stop offset="0.252" stop-color="#FFDC3E"/>
<stop offset="0.506" stop-color="#FF9D12"/>
<stop offset="0.526" stop-color="#FF980E"/>
</radialGradient>
<radialGradient id="paint4_radial_2580_38287" cx="0" cy="0" r="1" gradientUnits="userSpaceOnUse" gradientTransform="translate(7.01506 15.7593) scale(9.62171)">
<stop offset="0.353" stop-color="#3A8EE6"/>
<stop offset="0.472" stop-color="#5C79F0"/>
<stop offset="0.669" stop-color="#9059FF"/>
<stop offset="1" stop-color="#C139E6"/>
</radialGradient>
<radialGradient id="paint5_radial_2580_38287" cx="0" cy="0" r="1" gradientTransform="matrix(4.95851 -1.19882 1.40287 5.80533 10.3544 8.82492)" gradientUnits="userSpaceOnUse">
<stop offset="0.206" stop-color="#9059FF" stop-opacity="0"/>
<stop offset="0.278" stop-color="#8C4FF3" stop-opacity="0.064"/>
<stop offset="0.747" stop-color="#7716A8" stop-opacity="0.45"/>
<stop offset="0.975" stop-color="#6E008B" stop-opacity="0.6"/>
</radialGradient>
<radialGradient id="paint6_radial_2580_38287" cx="0" cy="0" r="1" gradientUnits="userSpaceOnUse" gradientTransform="translate(8.99455 1.39274) scale(6.92185)">
<stop stop-color="#FFE226"/>
<stop offset="0.121" stop-color="#FFDB27"/>
<stop offset="0.295" stop-color="#FFC82A"/>
<stop offset="0.502" stop-color="#FFA930"/>
<stop offset="0.732" stop-color="#FF7E37"/>
<stop offset="0.792" stop-color="#FF7139"/>
</radialGradient>
<radialGradient id="paint7_radial_2580_38287" cx="0" cy="0" r="1" gradientUnits="userSpaceOnUse" gradientTransform="translate(14.4381 -2.99753) scale(29.5324)">
<stop offset="0.113" stop-color="#FFF44F"/>
<stop offset="0.456" stop-color="#FF980E"/>
<stop offset="0.622" stop-color="#FF5634"/>
<stop offset="0.716" stop-color="#FF3647"/>
<stop offset="0.904" stop-color="#E31587"/>
</radialGradient>
<radialGradient id="paint8_radial_2580_38287" cx="0" cy="0" r="1" gradientTransform="matrix(2.27153 21.5255 -14.1268 1.49272 11.9471 -1.35547)" gradientUnits="userSpaceOnUse">
<stop stop-color="#FFF44F"/>
<stop offset="0.06" stop-color="#FFE847"/>
<stop offset="0.168" stop-color="#FFC830"/>
<stop offset="0.304" stop-color="#FF980E"/>
<stop offset="0.356" stop-color="#FF8B16"/>
<stop offset="0.455" stop-color="#FF672A"/>
<stop offset="0.57" stop-color="#FF3647"/>
<stop offset="0.737" stop-color="#E31587"/>
</radialGradient>
<radialGradient id="paint9_radial_2580_38287" cx="0" cy="0" r="1" gradientUnits="userSpaceOnUse" gradientTransform="translate(8.83114 3.95656) scale(18.4376)">
<stop offset="0.137" stop-color="#FFF44F"/>
<stop offset="0.48" stop-color="#FF980E"/>
<stop offset="0.592" stop-color="#FF5634"/>
<stop offset="0.655" stop-color="#FF3647"/>
<stop offset="0.904" stop-color="#E31587"/>
</radialGradient>
<radialGradient id="paint10_radial_2580_38287" cx="0" cy="0" r="1" gradientUnits="userSpaceOnUse" gradientTransform="translate(13.7007 5.03562) scale(20.1798 20.1798)">
<stop offset="0.094" stop-color="#FFF44F"/>
<stop offset="0.231" stop-color="#FFE141"/>
<stop offset="0.509" stop-color="#FFAF1E"/>
<stop offset="0.626" stop-color="#FF980E"/>
</radialGradient>
<linearGradient id="paint11_linear_2580_38287" x1="17.1853" y1="3.01547" x2="3.49318" y2="16.7074" gradientUnits="userSpaceOnUse">
<stop offset="0.167" stop-color="#FFF44F" stop-opacity="0.8"/>
<stop offset="0.266" stop-color="#FFF44F" stop-opacity="0.634"/>
<stop offset="0.489" stop-color="#FFF44F" stop-opacity="0.217"/>
<stop offset="0.6" stop-color="#FFF44F" stop-opacity="0"/>
</linearGradient>
</defs>
</svg>
