<svg width="20" height="20" viewBox="0 0 20 20" fill="none" xmlns="http://www.w3.org/2000/svg">
<path d="M6.70806 15.6361C5.60205 14.3301 4.88604 12.4021 4.83804 10.2361C4.83804 10.2301 4.83804 9.77008 4.83804 9.76408C4.88604 7.59806 5.60205 5.67005 6.70806 4.36404C8.14407 2.50202 10.2761 1.32001 12.6561 1.32001C14.1201 1.32001 15.4921 1.76801 16.6641 2.54602C14.9041 0.970008 12.5841 0.0100001 10.0381 0C10.0261 0 10.0121 0 10.0001 0C4.47804 0 0 4.47804 0 10.0001C0 15.3641 4.22204 19.7402 9.52408 19.9882C9.68208 19.9962 9.84008 20.0002 10.0001 20.0002C12.5601 20.0002 14.8961 19.0382 16.6641 17.4561C15.4921 18.2322 14.1221 18.6802 12.6561 18.6802C10.2761 18.6802 8.14407 17.4981 6.70806 15.6361Z" fill="url(#paint0_linear_2580_38282)"/>
<path d="M6.70703 4.36409C7.62504 3.28008 8.80905 2.62808 10.1051 2.62808C13.0171 2.62808 15.3751 5.92811 15.3751 10.0001C15.3751 14.0722 13.0151 17.3722 10.1051 17.3722C8.81105 17.3722 7.62504 16.7182 6.70703 15.6362C8.14304 17.4982 10.2751 18.6802 12.6551 18.6802C14.1191 18.6802 15.4911 18.2322 16.6631 17.4562C18.7111 15.6242 19.9991 12.9622 19.9991 10.0001C19.9991 7.03812 18.7111 4.37609 16.6631 2.54608C15.4911 1.76807 14.1211 1.32007 12.6551 1.32007C10.2751 1.32007 8.14304 2.50208 6.70703 4.36409Z" fill="url(#paint1_linear_2580_38282)"/>
<defs>
<linearGradient id="paint0_linear_2580_38282" x1="8.33253" y1="0.326083" x2="8.33253" y2="19.7091" gradientUnits="userSpaceOnUse">
<stop offset="0.3" stop-color="#FF1B2D"/>
<stop offset="0.4381" stop-color="#FA1A2C"/>
<stop offset="0.5939" stop-color="#ED1528"/>
<stop offset="0.7581" stop-color="#D60E21"/>
<stop offset="0.9272" stop-color="#B70519"/>
<stop offset="1" stop-color="#A70014"/>
</linearGradient>
<linearGradient id="paint1_linear_2580_38282" x1="13.3533" y1="1.46858" x2="13.3533" y2="18.6119" gradientUnits="userSpaceOnUse">
<stop stop-color="#9C0000"/>
<stop offset="0.7" stop-color="#FF4B4B"/>
</linearGradient>
</defs>
</svg>
